<svg xmlns="http://www.w3.org/2000/svg" height="800" width="1200" viewBox="-91.8 -153 795.6 918"><path d="M612 510c0 56.1-45.9 102-102 102H102C45.9 612 0 566.1 0 510V102C0 45.9 45.9 0 102 0h408c56.1 0 102 45.9 102 102z" fill="#563D7C"/><path d="M166.3 133h173.5c32 0 57.7 7.3 77 22 19.3 14.7 29 36.8 29 66.5 0 18-4.4 33.4-13.2 46.2-8.8 12.8-21.4 22.8-37.8 29.8v1c22 4.7 38.7 15.1 50 31.2 11.3 16.2 17 36.4 17 60.8 0 14-2.5 27.1-7.5 39.2-5 12.2-12.8 22.7-23.5 31.5s-24.3 15.8-41 21c-16.7 5.2-36.5 7.8-59.5 7.8h-164zm62.5 149.5h102c15 0 27.5-4.2 37.5-12.8 10-8.6 15-20.8 15-36.8 0-18-4.5-30.7-13.5-38-9-7.3-22-11-39-11h-102zm0 156.5h110.5c19 0 33.8-4.9 44.2-14.8 10.5-9.8 15.8-23.8 15.8-41.8 0-17.7-5.2-31.2-15.8-40.8-10.6-9.6-25.2-14.2-44.2-14.2H228.8z" fill="#FFF"/></svg>